<?xml version="1.0" encoding="utf-8"?>
<!-- Generator: Adobe Illustrator 27.5.0, SVG Export Plug-In . SVG Version: 6.00 Build 0)  -->
<svg version="1.1" id="Layer_1" xmlns="http://www.w3.org/2000/svg" xmlns:xlink="http://www.w3.org/1999/xlink" x="0px" y="0px"
	 viewBox="0 0 4000 4000" style="enable-background:new 0 0 4000 4000;" xml:space="preserve">
<g>
	<g>
		<rect style="fill:#9EFFB7;" width="4000" height="4000"/>
	</g>
	<g>
		<g style="opacity:0.22;">
			<ellipse style="fill:#160872;" cx="2005" cy="3229.25" rx="1555.877" ry="105.75"/>
		</g>
		<g>
			<g>
				
					<ellipse transform="matrix(0.404 -0.9147 0.9147 0.404 813.9104 2815.0244)" style="fill:#7EC42E;" cx="2567.308" cy="782.887" rx="41.877" ry="71.115"/>
				<path style="fill:#160872;" d="M2592.788,853.317c-16.536,0-34.436-3.96-51.506-11.499
					c-48.843-21.572-74.485-63.174-59.651-96.768c14.841-33.604,62.871-42.666,111.707-21.094
					c21.001,9.277,38.845,23.13,50.249,39.014c13.735,19.131,17.161,40.181,9.399,57.759c-7.764,17.573-25.633,29.224-49.026,31.953
					C2600.327,853.107,2596.591,853.317,2592.788,853.317z M2541.826,757.589c-10.586,0-17.659,2.759-18.945,5.679
					c-2.385,5.396,8.977,25.093,36.618,37.3c13.555,5.986,27.847,8.667,39.229,7.329c8.223-0.962,12.285-3.75,13.008-5.386v-0.005
					c0.725-1.636,0.049-6.514-4.78-13.237c-6.68-9.307-18.286-18.076-31.836-24.063
					C2562.407,759.591,2550.842,757.589,2541.826,757.589z"/>
			</g>
			<g>
				<g>
					<path style="fill:#F97ADB;" d="M3463.746,2171.366c0,8.679-3.719,17.19-10.314,23.278c-12.007,11.16-30.607,11.33-42.782,0.339
						c-17.924-16.178-41.034-21.024-60.537-21.024c-53.942,0-166.392,72.993-109.913,232.057
						c62.002,174.734,95.822,794.756-521.383,769.391c0,0-241.527-3.157-290.791-117.128
						c21.137-47.572,30.551-105.01,23.393-171.746c-18.827-175.129,6.256-282.223,135.615-322.355
						c-0.733,13.358-0.902,26.83-0.451,40.357c-0.338,108.673,86.465,168.815,181.102,168.815
						c100.613,0,187.754-102.36,182.231-228.281c-27.112-620.585,469.244-542.913,512.758-381.652
						C3463.409,2166.066,3463.746,2168.716,3463.746,2171.366z"/>
				</g>
				<g style="opacity:0.22;">
					<g>
						<path style="fill:#160872;" d="M2747.525,3095.083c0,0-0.531-0.007-1.548-0.032
							c-143.491-3.523-257.691-118.81-263.841-262.212c-0.374-8.705-1.04-17.583-2.01-26.631
							c-6.892-64.112-7.86-119.065-0.021-164.995c-35.224,56.462-40.209,138.121-28.686,245.319
							c7.159,66.736-2.255,124.174-23.393,171.746c49.264,113.971,290.791,117.128,290.791,117.128
							c331.092,13.607,474.79-158.516,527.344-347.984C3176.974,2982.308,3030.896,3106.728,2747.525,3095.083z"/>
					</g>
				</g>
				<g style="opacity:0.6;">
					<g>
						<path style="fill:#FFFFFF;" d="M3447.36,2198.96c2.138-1.203,4.204-2.579,6.073-4.315
							c6.594-6.088,10.314-14.599,10.314-23.278c0-2.65-0.338-5.3-1.071-7.948c-43.159-159.944-531.698-237.533-513.224,366.711
							C2966.893,2038.15,3357.561,2069.271,3447.36,2198.96z"/>
					</g>
					<g>
						<path style="fill:#FFFFFF;" d="M2949.917,2612.708c-0.479-10.957-0.753-21.639-0.91-32.164
							c-10.406,109.119-90.348,192.806-181.32,192.806c-81.088,0-156.369-44.188-176.067-125.191
							c-1.727,1.373-3.472,2.731-5.251,4.073c-0.072,6.63-0.006,13.278,0.216,19.941c-0.338,108.673,86.465,168.815,181.102,168.815
							C2868.3,2840.989,2955.441,2738.629,2949.917,2612.708z"/>
					</g>
				</g>
				<g>
					<path style="fill:#F97ADB;" d="M2374.368,1171.664c-392.474-131.839-801.295-16.515-958.442,337.63
						c-134.601,303.304,21.475,747.297-92.44,994.572c-49.207,106.871-162.389,131.221-266.046,87.48
						c-70.57-29.818-114.817-140.237-42.726-306.516c140.914-325.06,48.814-542.971-146.551-546.747
						c-133.191-2.536-176.255,79.138-189.614,121.412c-0.733,2.254-1.071,4.508-1.071,6.764c0,10.598,7.778,20.179,18.995,21.758
						c5.524,0.788,11.273-0.508,15.783-3.834c117.466-85.168,242.598,104.333,106.813,231.212
						c-107.827,100.783-167.011,249.757-167.011,408.99c0,75.642,14.429,147.96,40.583,214.359
						c-89.509,36.525-161.995,126.936-201,319.029c-1.353,6.765,0.281,13.754,4.397,19.278c0.112,0.169,0.281,0.282,0.394,0.45
						c10.879,14.43,33.143,12.119,40.978-4.17c219.601-458.255,660.888,602.774,1326.454-166.449
						c7.834,207.089,136.292,317.508,293.608,317.508c112.901,0,222.251-57.436,270.555-166.109
						c21.137-47.572,30.551-105.01,23.393-171.746c-18.827-175.129,6.256-282.223,135.615-322.355
						c2.198-38.555,9.357-76.489,21.137-113.013c16.628-51.856,42.499-100.782,76.319-144.634
						c53.266-69.048,101.346-143.677,132.685-227.154C3034.466,1499.937,2781.046,1308.238,2374.368,1171.664z"/>
				</g>
				<g>
					<g>
						
							<ellipse transform="matrix(0.8959 -0.4443 0.4443 0.8959 -455.8182 1341.3618)" style="fill:#ED5FB7;" cx="2634.025" cy="1643.216" rx="96.545" ry="115.55"/>
					</g>
					<g>
						<path style="fill:#ED5FB7;" d="M2134.155,2521.278c13.624-15.672,31.411-30.738,51.322-43.435
							c-30.169-50.661-87.606-73.581-132.668-51.233c-47.769,23.689-63.508,89.241-35.155,146.413
							c14.413,29.064,37.459,50.312,62.899,61.122C2088.341,2592.385,2108.419,2550.883,2134.155,2521.278z"/>
					</g>
					<g>
						
							<ellipse transform="matrix(0.8959 -0.4443 0.4443 0.8959 -383.0576 1354.5504)" style="fill:#ED5FB7;" cx="2698.615" cy="1494.588" rx="29.756" ry="35.614"/>
					</g>
					<g>
						
							<ellipse transform="matrix(0.8959 -0.4443 0.4443 0.8959 -504.0955 1412.6893)" style="fill:#ED5FB7;" cx="2762.096" cy="1781.894" rx="29.756" ry="35.614"/>
					</g>
					<g>
						
							<ellipse transform="matrix(0.8959 -0.4443 0.4443 0.8959 -833.3188 1163.0909)" style="fill:#ED5FB7;" cx="2064.976" cy="2359.561" rx="29.756" ry="35.614"/>
					</g>
					<g>
						<path style="fill:#ED5FB7;" d="M1515.834,1334.303c-32.183,33.872-55.61,72.653-73.536,114.331
							c0.707,0.802,1.363,1.637,2.128,2.401c23.52,23.52,65.407,19.767,93.557-8.383c28.15-28.15,31.903-70.037,8.383-93.557
							C1538.026,1340.756,1527.36,1335.913,1515.834,1334.303z"/>
					</g>
					<g>
						<path style="fill:#ED5FB7;" d="M1592.643,1487.353c-14.225-14.225-39.557-11.955-56.581,5.07
							c-17.025,17.025-19.294,42.357-5.07,56.581c14.224,14.225,39.557,11.955,56.581-5.07
							C1604.597,1526.91,1606.867,1501.577,1592.643,1487.353z"/>
					</g>
					<g>
						
							<ellipse transform="matrix(0.8959 -0.4443 0.4443 0.8959 -371.6345 1291.884)" style="fill:#ED5FB7;" cx="2570.579" cy="1438.871" rx="47.362" ry="56.685"/>
					</g>
					<g>
						
							<ellipse transform="matrix(0.7728 -0.6347 0.6347 0.7728 -480.1223 1342.6896)" style="fill:#ED5FB7;" cx="1635.147" cy="1341.886" rx="37.15" ry="31.04"/>
					</g>
				</g>
				<g style="opacity:0.22;">
					<g>
						<path style="fill:#160872;" d="M1872.017,2866.486c-0.359-8.7-0.24-17.269,0.268-25.714
							c-4.555-22.795-7.445-47.093-8.422-72.927c-665.566,769.224-1101.205-164.128-1320.806,294.126
							c-3.367,7-13.483,27.648-5.648,11.359c219.601-458.255,660.888,602.774,1326.454-166.449
							c1.01,26.695,4.08,51.732,8.907,75.179C1872.496,2943.526,1873.609,2905.01,1872.017,2866.486z"/>
					</g>
				</g>
				<g style="opacity:0.6;">
					<g>
						<path style="fill:#FFFFFF;" d="M981.412,2482.891c-15.521,103.828,22.724,172.36,76.028,194.881
							c103.657,43.741,216.839,19.391,266.046-87.48c40.653-88.245,46.913-201.552,44.278-324.569
							c-2.346,89.372-13.354,171.015-44.278,238.142c-49.207,106.871-162.389,131.221-266.046,87.48
							C1020.746,2575.842,991.219,2538.5,981.412,2482.891z"/>
					</g>
					<g>
						<path style="fill:#FFFFFF;" d="M1827.339,1184.628c-5.862,14.936-3.552,32.241,9.413,50.786
							c-184.259,52.475-337.743,172.986-420.826,360.289c-41.824,94.3-55.577,202.128-58.113,313.45
							c-2.705-141.365,5.524-281.322,58.113-399.859c88.495-199.478,256.802-323.2,457.125-369.645
							C1852.252,1152.049,1834.272,1167.154,1827.339,1184.628z"/>
					</g>
					<g>
						<path style="fill:#FFFFFF;" d="M2895.299,1753.978c-12.626-177.665-106.588-292.764-250.32-378.271
							c40.527-19.954,58.846-40.47,62.509-44.867C2835.269,1426.211,2908.376,1556.247,2895.299,1753.978z"/>
					</g>
				</g>
				<g>
					<g style="opacity:0.6;">
						<path style="fill:#FFFFFF;" d="M696.474,1888.016c5.524,0.788,11.273-0.508,15.783-3.834
							c6.565-4.76,13.154-8.617,19.721-11.72c22.005-42.561,70.815-94.824,177.777-92.787
							c47.242,0.914,88.421,14.382,121.752,38.826c-37.521-50.652-93.898-79.074-163.343-80.417
							c-133.191-2.536-176.255,79.138-189.614,121.412c-0.733,2.254-1.071,4.508-1.071,6.764
							C677.479,1876.855,685.257,1886.437,696.474,1888.016z"/>
					</g>
					<g>
						<path style="fill:#FFFFFF;" d="M1905.456,2948.472c-10.79,12.47-21.518,24.437-32.189,35.959
							c16.723,78.96,54.03,139.194,104.365,179.557C1935.536,3111.511,1908.892,3039.293,1905.456,2948.472z"/>
					</g>
					<g style="opacity:0.6;">
						<path style="fill:#FFFFFF;" d="M692.641,2738.742c-89.509,36.525-161.995,126.936-201,319.029
							c-1.353,6.765,0.281,13.754,4.397,19.278c0.112,0.169,0.281,0.282,0.394,0.45c10.879,14.43,33.143,12.119,40.978-4.17
							c0.924-1.928,1.862-3.761,2.794-5.636c40.326-170.462,143.578-296.986,228.009-331.44
							C762.534,2721.835,692.373,2738.063,692.641,2738.742z"/>
					</g>
				</g>
				<g style="opacity:0.22;">
					<path style="fill:#160872;" d="M2708.108,1330.051c-0.112,0.113-0.281,0.395-0.62,0.79
						c-3.663,4.397-21.982,24.913-62.509,44.867c-64.144,31.509-184.034,61.551-389.6,23.449
						c-260.24-48.081-382.047-111.042-418.628-163.743c-12.964-18.545-15.275-35.849-9.413-50.786
						c6.933-17.474,24.913-32.579,45.712-44.98c41.486-24.576,94.356-38.442,94.356-38.442c1.466,0.226,3.72,0.621,6.764,1.071
						c1.409,0.282,3.043,0.564,4.791,0.846c14.486,2.536,40.245,7.214,74.515,14.204c1.522,0.337,3.1,0.619,4.735,0.958
						c0.732,0.169,1.466,0.281,2.198,0.451c0.056,0,0.056,0,0.113,0c4.622,0.958,9.413,1.972,14.261,2.986
						c4.566,0.959,9.301,1.973,14.091,3.044c3.664,0.79,7.271,1.578,11.048,2.367c3.213,0.733,6.482,1.467,9.807,2.143
						c7.159,1.635,14.487,3.27,22.039,5.016c7.553,1.748,15.332,3.495,23.223,5.411c1.973,0.451,4.002,0.903,5.975,1.409
						c2.029,0.451,4.002,0.959,6.031,1.467c2.029,0.45,4.115,0.958,6.144,1.464c6.145,1.467,12.344,3.044,18.657,4.566
						c2.536,0.621,5.017,1.183,7.497,1.86c6.031,1.522,12.118,3.044,18.319,4.622c14.091,3.607,28.577,7.441,43.401,11.385
						c7.947,2.143,16.064,4.398,24.238,6.596c9.525,2.705,19.164,5.467,28.971,8.286c4.735,1.353,9.582,2.762,14.43,4.171
						c5.185,1.522,10.427,3.044,15.614,4.566c4.565,1.409,9.187,2.762,13.697,4.171c34.496,10.541,70.006,21.982,105.798,34.439
						c5.129,1.748,10.315,3.495,15.388,5.356c15.388,5.467,30.832,11.104,46.276,16.91c5.186,1.916,10.372,3.945,15.5,5.917
						c2.537,0.903,5.017,1.917,7.553,2.931c5.354,2.086,10.765,4.172,16.064,6.314c3.325,1.296,6.595,2.649,9.92,3.945
						c4.227,1.748,8.511,3.494,12.682,5.187c22.208,9.187,44.303,18.656,66.173,28.633c5.805,2.705,11.667,5.354,17.473,8.116
						c5.467,2.481,10.823,5.074,16.177,7.666c5.355,2.536,10.653,5.129,15.951,7.778c0.79,0.395,1.635,0.79,2.424,1.183
						C2706.249,1329.093,2707.15,1329.544,2708.108,1330.051z"/>
				</g>
				<g>
					<path style="fill:#160872;" d="M2755.358,3198.717c-12.198,0-24.585-0.259-37.166-0.771
						c-14.417-0.225-256.924-5.918-310.882-130.737c-4.941-11.431,0.32-24.702,11.751-29.639c11.426-4.951,24.7,0.317,29.641,11.748
						c35.589,82.324,207.273,102.656,270.423,103.545c0.202,0.005,0.415,0.01,0.618,0.015
						c195.146,8.071,339.372-49.341,428.718-170.493c137.571-186.538,106.008-468.736,70.491-568.828
						c-33.782-95.2-10.427-158.291,15.11-194.448c32.839-46.499,83.178-67.676,116.052-67.676c20.977,0,51.128,4.649,75.664,26.807
						c3.464,3.135,8.887,3.066,12.341-0.142c2.508-2.32,3.599-5.772,2.783-8.789c-15.72-58.242-113.352-110.981-220.515-94.38
						c-50.325,7.793-121.685,34.361-175.857,116.665c-54.436,82.7-78.689,201.289-72.09,352.475
						c3.154,72.197-21.809,141.567-68.481,190.322c-37.957,39.648-86.36,61.484-136.292,61.484
						c-58.936,0-114.138-21.465-151.448-58.892c-34.307-34.414-52.354-80.234-52.19-132.505
						c0.039-12.427,10.127-22.471,22.544-22.471c0.024,0,0.049,0,0.073,0c12.451,0.039,22.515,10.161,22.476,22.617
						c-0.127,40.02,13.371,74.781,39.031,100.522c28.914,29.004,72.473,45.64,119.514,45.64c37.515,0,74.348-16.899,103.718-47.578
						c38.211-39.917,58.626-97.207,56.006-157.178c-7.021-160.854,19.717-288.447,79.473-379.233
						c63.262-96.113,147.28-127.241,206.621-136.431c121.001-18.745,247.603,40.698,270.952,127.193
						c5.208,19.292-0.796,39.834-15.671,53.613c-20.774,19.238-52.249,19.468-73.213,0.527
						c-13.892-12.544-32.378-15.181-45.439-15.181c-21.765,0-56.926,17.036-79.219,48.599
						c-19.392,27.456-36.772,76.353-9.448,153.359c18.574,52.339,38.086,155.361,31.946,273.452
						c-4.846,93.208-27.627,227.368-108.64,337.221C3091.914,3135.036,2947.57,3198.712,2755.358,3198.717z"/>
				</g>
				<g>
					<path style="fill:#160872;" d="M1880.902,2921.63c-40.026,46.997-82.897,92.006-130.167,132.708
						c-11.968,10.006-23.687,20.293-36.252,29.647l-18.612,14.293l-19.235,13.551l-9.628,6.764l-9.948,6.345l-19.921,12.659
						c-13.78,7.695-27.169,16.044-41.473,22.891c-7.112,3.478-14.005,7.369-21.307,10.496l-21.77,9.644
						c-7.312,3.098-14.831,5.751-22.243,8.638c-7.378,2.985-14.989,5.375-22.595,7.782c-30.349,9.74-61.642,17.195-93.474,21.063
						c-31.793,4.027-63.969,5.092-95.902,3.269c-31.945-1.781-63.59-6.633-94.534-13.668
						c-61.987-14.092-120.776-37.401-176.768-64.167c-56.067-26.777-109.486-57.358-162.308-86.77
						c-26.429-14.659-52.773-28.901-79.31-41.498c-13.253-6.421-26.584-12.012-39.912-17.296
						c-13.339-4.843-26.712-9.473-39.959-12.388c-13.208-2.854-26.375-4.972-38.932-4.74c-12.555,0.198-24.537,2.156-35.81,6.057
						c-11.284,3.889-21.624,10.419-31.46,18.13l-7.204,6.179c-2.331,2.197-4.508,4.673-6.788,6.978
						c-4.696,4.417-8.571,10.1-12.88,15.151c-4.024,5.439-7.871,11.146-11.714,16.84c-3.5,6.064-7.266,11.888-10.602,18.125
						l-4.886,9.467l-2.451,4.73l-1.227,2.365c-0.849,1.636-1.853,3.444-2.85,5.11c-4.226,6.741-10.222,12.635-17.175,16.716
						c-6.95,4.109-14.766,6.477-22.698,6.989c-7.928,0.519-16.045-0.829-23.505-4.059c-7.474-3.177-14.149-8.387-19.043-14.484
						c-1.928-2.202-4.508-5.941-6.247-9.407c-1.825-3.561-3.229-7.336-4.175-11.228c-0.95-3.892-1.435-7.904-1.429-11.929
						c0.005-2.01,0.111-4.026,0.361-6.027c0.185-1.833,0.73-4.513,0.855-4.996l5.113-22.852l2.561-11.423l2.969-11.372l5.993-22.732
						l6.912-22.584c2.169-7.552,4.92-14.991,7.56-22.45c2.69-7.449,5.134-14.952,8.307-22.283
						c11.528-29.587,25.781-58.577,43.59-85.896c17.836-27.209,39.233-53.048,65.452-74.089
						c26.061-21.077,56.254-37.604,88.079-47.698c31.857-9.99,64.737-14.59,96.941-15.302c32.241-0.648,63.931,2.028,94.967,6.328
						c62.078,8.778,121.673,23.795,180.712,37.091c29.507,6.696,58.856,13.011,88.143,17.941
						c29.262,4.858,58.525,8.617,87.367,9.142c28.77,0.439,57.33-1.332,84.13-8.488c13.589-3.077,26.366-8.248,38.975-13.815
						c6.053-3.243,12.437-6.003,18.156-9.901c2.906-1.869,5.946-3.556,8.828-5.491l8.43-6.157l4.231-3.093l3.969-3.445l8.048-6.836
						c5.065-4.917,10.156-9.882,15.054-15.09c9.631-10.59,18.766-21.912,26.862-34.137c16.811-24.116,30.439-50.896,43.635-78.335
						l0.021-0.045c0.955-1.985,3.339-2.821,5.324-1.866c1.666,0.802,2.521,2.614,2.189,4.348
						c-5.823,30.32-15.467,60.093-29.081,88.693c-6.923,14.229-15.197,27.943-24.409,41.226c-2.167,3.417-4.953,6.399-7.426,9.617
						c-2.58,3.138-5.038,6.392-7.748,9.442l-8.458,8.914l-4.284,4.43l-4.615,4.106l-9.316,8.181
						c-3.205,2.614-6.605,4.998-9.946,7.462c-6.561,5.135-13.883,9.108-20.964,13.521c-14.635,7.852-29.946,14.794-45.834,19.393
						c-31.717,9.926-64.54,12.726-96.476,12.582c-32.026-0.273-63.325-4.021-94.094-8.795
						c-30.765-4.855-60.984-11.049-90.871-17.504c-59.745-12.841-118.528-26.903-177.101-34.532
						c-29.243-3.75-58.395-5.835-86.997-4.965c-28.574,0.923-56.465,5.304-82.609,13.767c-26.061,8.666-50.043,21.954-71.199,39.199
						c-21.237,17.18-39.092,38.865-54.423,62.524c-15.296,23.739-27.978,49.683-38.356,76.826
						c-2.858,6.644-5.069,13.636-7.51,20.505c-2.396,6.892-4.905,13.732-6.884,20.82l-6.332,21.082l-5.512,21.422l-2.741,10.715
						l-2.363,10.853l-4.735,21.702c-0.291,1.371-0.121,0.56-0.134,0.618l0.025-0.338c-0.002-0.221-0.022-0.432-0.06-0.631
						c-0.04-0.2-0.106-0.389-0.195-0.568c0.003-0.09-0.472-0.624,0.126,0.017c-0.373-0.472-1.719-1.218-2.318-1.071
						c-0.597-0.061-1.722,0.525-2.14,1.274l9.608-18.822c3.801-7.189,8.216-14.215,12.324-21.316
						c4.592-6.946,9.221-13.899,14.23-20.676c5.473-6.581,10.323-13.463,16.626-19.608c3.045-3.119,5.948-6.327,9.144-9.341
						l10.085-8.706c13.952-11.091,29.728-20.952,47.267-27.087c17.458-6.158,35.834-9.049,53.683-9.28
						c17.923-0.266,34.998,2.501,51.462,6.068c16.484,3.657,31.927,8.995,47.161,14.534c14.959,5.89,29.688,12.097,43.825,18.922
						c28.439,13.475,55.644,28.19,82.426,43.008c53.536,29.637,105.698,59.752,159.367,85.643
						c53.575,25.87,108.617,47.784,165.366,60.891c56.657,13.164,114.835,17.54,172.058,10.815
						c28.628-3.163,56.866-9.609,84.487-18.16c6.919-2.111,13.85-4.187,20.604-6.862c6.78-2.576,13.652-4.895,20.367-7.664
						l20.037-8.638c6.722-2.776,13.126-6.345,19.709-9.47c13.235-6.134,25.758-13.826,38.622-20.796l18.702-11.635l9.354-5.82
						l9.097-6.267l18.201-12.538l17.705-13.325c11.949-8.684,23.191-18.384,34.662-27.764
						c45.502-38.081,87.744-80.546,127.362-125.498l0.02-0.023c8.234-9.341,22.481-10.24,31.823-2.007
						C1887.885,2898.24,1888.85,2912.285,1880.902,2921.63z"/>
				</g>
				<g>
					<path style="fill:#160872;" d="M692.651,2761.286c-8.989,0-17.481-5.41-20.982-14.277
						c-27.961-70.874-42.139-145.776-42.139-222.627c0-166.924,63.464-321.987,174.116-425.429
						c65.989-61.69,63.179-139.243,26.296-183.965c-22.017-26.704-61.013-44.014-104.438-12.529
						c-9.268,6.724-20.701,9.536-32.217,7.886c-13.04-1.865-24.522-9.321-31.516-20.454c-6.985-11.128-8.711-24.688-4.736-37.217
						c13.389-42.192,60.823-139.805,211.543-137.134c81.062,1.563,148.533,37.944,189.99,102.446
						c69.487,108.11,61.035,281.538-23.186,475.815c-36.851,85-44.9,162.373-22.668,217.866
						c11.287,28.169,30.286,49.082,53.498,58.882c84.063,35.513,189.885,25.728,236.802-76.128
						c52.231-113.389,45.046-273.433,37.441-442.876c-8.569-190.967-17.434-388.428,54.89-551.411
						c78.04-175.874,217.908-301.504,404.482-363.315c175.859-58.262,382.456-53.477,581.738,13.462
						c193.865,65.122,403.982,156.782,492.471,342.822c70.383,147.983,58.684,342.349-35.769,594.209
						c-28.32,75.518-71.519,149.561-135.945,233.008c-63.521,82.271-96.623,182.944-93.213,283.467
						c0.422,12.446-9.324,22.876-21.77,23.301c-12.373,0.439-22.874-9.326-23.298-21.768
						c-3.765-110.996,32.668-221.997,102.588-312.559c61.599-79.785,102.722-150.098,129.417-221.279
						c89.932-239.805,102.122-422.656,37.268-559.009c-81.245-170.815-281.213-257.339-466.108-319.448
						c-402.871-135.318-785.574-1.523-930.645,325.4c-68.015,153.276-59.395,345.347-51.057,531.099
						c7.856,175.068,15.278,340.43-41.533,463.765c-50.747,110.166-172.175,150.791-295.303,98.804
						c-34.382-14.521-62.017-44.229-77.813-83.657c-26.743-66.748-18.518-156.445,23.154-252.573
						c78.14-180.244,87.844-338.247,26.626-433.496c-33.547-52.197-86.428-80.459-152.925-81.738
						c-114.651-2.271-153.979,63.74-167.251,104.307c55.452-39.268,121.282-30.776,164.272,21.362
						c49.048,59.482,55.1,165.771-30.29,245.596c-101.567,94.951-159.819,238.008-159.819,392.49
						c0,71.162,13.118,140.493,38.994,206.074c4.568,11.587-1.116,24.677-12.7,29.248
						C698.203,2760.778,695.402,2761.286,692.651,2761.286z"/>
				</g>
				<g>
					<path style="fill:#7EC42E;" d="M2833.41,1216.305c0,65.498-14.317,127.724-40.133,184.09l-1.184-0.506
						c-44.078-32.749-92.046-63.298-142.098-91.594v-0.056c26.661-44.191,44.811-93.792,51.8-147.397
						c5.693-43.458,3.664-86.295-5.016-127.329c-33.257-157.429-171.69-271.458-331.825-276.022
						C2624.688,762.843,2833.41,966.268,2833.41,1216.305z"/>
				</g>
				<g>
					<path style="fill:#FFFFFF;" d="M2701.796,1160.841c-6.989,53.605-25.139,103.206-51.8,147.397
						c-0.902-0.508-1.86-1.014-2.762-1.522c-6.031-3.439-12.119-6.82-18.262-10.146c-5.299-2.931-10.654-5.862-16.065-8.68
						c-5.749-3.099-11.555-6.143-17.36-9.187c-21.701-11.33-43.627-22.208-65.666-32.749c-4.171-1.973-8.398-4.002-12.626-5.975
						c-3.27-1.522-6.538-3.044-9.807-4.564c-5.298-2.481-10.653-4.905-15.952-7.328c-2.536-1.184-5.016-2.312-7.496-3.383
						c-5.13-2.31-10.259-4.621-15.388-6.876c-15.331-6.764-30.663-13.358-45.938-19.784c-5.072-2.141-10.202-4.227-15.275-6.312
						c-35.567-14.656-70.795-28.296-105.066-40.922c-4.509-1.691-9.075-3.326-13.584-5.017c-5.185-1.86-10.371-3.72-15.5-5.524
						c-4.847-1.748-9.638-3.438-14.373-5.072c-9.696-3.439-19.277-6.765-28.747-10.033c-8.117-2.762-16.121-5.467-24.068-8.116
						c-14.712-4.848-29.085-9.582-43.12-14.035c-6.144-1.973-12.175-3.889-18.15-5.749c-2.48-0.79-4.959-1.522-7.439-2.312
						c-6.257-1.972-12.457-3.889-18.544-5.692c-2.03-0.621-4.058-1.241-6.088-1.86c-2.029-0.621-4.002-1.241-5.975-1.804
						c-1.972-0.621-4.002-1.183-5.975-1.804c-7.835-2.367-15.556-4.621-23.053-6.82c-7.497-2.198-14.768-4.284-21.87-6.314
						c-3.325-0.901-6.539-1.859-9.751-2.76c-3.72-1.016-7.328-2.03-10.935-3.044c-4.791-1.353-9.469-2.65-14.035-3.889
						c-5.637-1.522-11.16-3.044-16.458-4.453c-1.578-0.451-3.157-0.846-4.679-1.241c-34.045-9.074-59.635-15.33-74.007-18.712
						c-1.748-0.395-3.326-0.79-4.735-1.128c-3.044-0.676-5.298-1.183-6.707-1.521c73.613-162.728,242.823-276.587,439.765-276.587
						h2.085c2.537,0,5.129,0.057,7.666,0.113c0.281,0,0.619,0,0.901,0.056c160.135,4.565,298.569,118.594,331.825,276.022
						C2705.459,1074.546,2707.489,1117.383,2701.796,1160.841z"/>
					<path style="fill:#160872;" d="M2649.978,1330.788c-3.745,0-7.539-0.933-11.03-2.896l-2.786-1.538
						c-5.981-3.408-11.926-6.709-17.922-9.956c-5.317-2.939-10.513-5.781-15.759-8.521c-5.938-3.193-11.667-6.201-17.397-9.204
						c-20.359-10.625-41.609-21.226-64.932-32.383l-4.333-2.056c-2.69-1.279-5.396-2.563-8.098-3.828l-9.79-4.556
						c-4.038-1.89-8.064-3.726-12.073-5.557l-3.735-1.704c-2.502-1.167-4.775-2.202-7.048-3.184
						c-5.4-2.427-10.469-4.712-15.54-6.938c-14.619-6.455-29.951-13.057-45.603-19.644c-3.916-1.655-7.832-3.257-11.731-4.858
						l-3.372-1.382c-33.447-13.779-68.53-27.446-104.292-40.62c-2.334-0.874-4.563-1.694-6.792-2.51
						c-2.307-0.845-4.614-1.689-6.907-2.549c-4.841-1.733-9.98-3.579-15.063-5.361c-4.919-1.777-9.609-3.433-14.243-5.029
						c-9.832-3.491-19.351-6.792-28.755-10.039c-7.983-2.72-15.94-5.405-23.84-8.037c-14.563-4.8-28.857-9.512-42.815-13.94
						c-6.152-1.973-12.122-3.867-18.035-5.708l-7.585-2.363c-6.057-1.909-12.131-3.784-18.093-5.547l-7.903-2.417
						c-1.326-0.41-2.629-0.816-3.933-1.187c-0.198-0.054-0.393-0.112-0.588-0.176l-2.612-0.786
						c-1.126-0.332-2.253-0.669-3.362-1.016c-6.882-2.08-13.909-4.136-20.754-6.143l-1.88-0.552
						c-7.448-2.183-14.673-4.253-21.728-6.274c-1.795-0.483-3.835-1.069-5.857-1.65l-3.767-1.069
						c-3.567-0.972-7.156-1.982-10.747-2.993c-4.951-1.401-9.548-2.676-14.038-3.892l-5.918-1.606
						c-3.552-0.967-7.044-1.919-10.437-2.818c-1.582-0.449-2.715-0.737-3.814-1.02l-0.688-0.176
						c-35.959-9.585-61.516-15.767-73.567-18.604c-1.16-0.264-2.417-0.566-3.584-0.849l-1.228-0.298
						c-2.837-0.625-5.212-1.162-6.702-1.519c-6.543-1.563-12.046-5.962-15.007-12.002c-2.961-6.045-3.071-13.091-0.298-19.219
						c79.648-176.074,260.33-289.839,460.308-289.839h2.085c2.637,0,5.327,0.049,7.967,0.112c0.618,0.005,1.328,0.024,2.124,0.088
						c82.312,2.544,162.668,33.013,226.365,85.845c64.153,53.213,108.899,127.09,125.999,208.032
						c9.419,44.531,11.206,89.927,5.313,134.917c-7.2,55.19-25.652,107.715-54.849,156.113
						C2665.078,1326.886,2657.631,1330.788,2649.978,1330.788z M2113.21,1063.991c1.521,0.439,3.042,0.903,4.585,1.382l7.6,2.324
						c6.02,1.782,12.349,3.735,18.735,5.747l7.51,2.339c5.889,1.831,11.985,3.765,18.193,5.762
						c14.038,4.453,28.489,9.214,43.284,14.092c8.059,2.681,16.113,5.405,24.277,8.184c9.619,3.315,19.265,6.665,29.024,10.132
						c4.634,1.592,9.529,3.325,14.48,5.107c4.998,1.758,10.229,3.633,15.461,5.513c2.488,0.928,4.692,1.733,6.897,2.544
						c2.334,0.854,4.67,1.709,6.99,2.578c36.172,13.33,71.79,27.202,105.74,41.191l3.32,1.362c4.045,1.655,8.11,3.325,12.141,5.029
						c15.862,6.67,31.438,13.379,46.27,19.927c5.159,2.271,10.349,4.604,15.54,6.943c2.356,1.011,5.044,2.231,7.793,3.516
						l3.516,1.606c4.146,1.89,8.311,3.789,12.441,5.723l9.741,4.536c2.847,1.328,5.649,2.661,8.438,3.984l4.336,2.06
						c23.889,11.426,45.598,22.256,66.458,33.145c5.913,3.096,11.794,6.182,17.617,9.316c5.313,2.768,10.83,5.786,16.286,8.804
						c0.498,0.268,0.999,0.542,1.497,0.81c19.817-37.666,32.6-77.847,38.061-119.722c0-0.005,0-0.01,0-0.015
						c5.23-39.917,3.643-80.2-4.719-119.736c-31.196-147.676-158.84-253.828-310.408-258.149c-0.366-0.015-0.73-0.029-1.094-0.059
						c-2.265-0.054-4.573-0.103-6.833-0.103h-2.085c-172.734,0-329.531,92.793-407.073,238.608
						c14.148,3.462,34.009,8.462,58.567,15.01l0.449,0.117c1.526,0.391,3.093,0.791,4.658,1.245
						c3.032,0.801,6.614,1.772,10.259,2.764l5.845,1.592c4.648,1.255,9.407,2.578,14.277,3.95c3.684,1.04,7.161,2.017,10.747,2.998
						l4.197,1.191c1.821,0.522,3.655,1.05,5.527,1.557c7.437,2.124,14.758,4.224,22.302,6.436l1.875,0.547
						c6.966,2.046,14.116,4.141,21.36,6.328l2.849,0.859C2111.169,1063.371,2112.194,1063.673,2113.21,1063.991z M2360.827,779.65
						c0,0,0.002,0,0.002,0.005C2360.83,779.65,2360.827,779.65,2360.827,779.65z M2360.754,779.64c0.017,0,0.034,0.005,0.051,0.01
						C2360.788,779.645,2360.771,779.64,2360.754,779.64z"/>
				</g>
				<g style="opacity:0.22;">
					<path style="fill:#160872;" d="M2793.39,1032.679c7.907,33.076,12.22,67.464,12.22,102.836c0,0.821-0.002,1.643-0.007,2.463
						c-0.48,87.61-96.674,140.719-172.071,96.097c-3.966-2.348-7.761-4.551-11.336-6.572v-0.055
						c-0.901-0.509-1.86-1.016-2.762-1.522c-6.031-3.44-12.118-6.82-18.262-10.147c-5.298-2.931-10.654-5.862-16.065-8.681
						c-5.749-3.099-11.555-6.143-17.36-9.187c-21.701-11.328-43.627-22.208-65.667-32.749c-4.171-1.973-8.398-4.002-12.626-5.975
						c-3.27-1.522-6.538-3.044-9.808-4.563c-5.298-2.483-10.652-4.904-15.952-7.329c-2.536-1.183-5.016-2.312-7.496-3.382
						c-5.13-2.309-10.259-4.621-15.388-6.875c-15.331-6.765-30.664-13.359-45.939-19.786c-5.072-2.141-10.201-4.227-15.275-6.311
						c-35.567-14.656-70.795-28.296-105.065-40.923c-4.51-1.69-9.075-3.325-13.585-5.017c-5.185-1.861-10.37-3.718-15.5-5.524
						c-4.847-1.748-9.638-3.438-14.372-5.072c-9.696-3.438-19.278-6.765-28.747-10.032c-8.116-2.763-16.121-5.469-24.068-8.116
						c-14.712-4.849-29.084-9.583-43.119-14.036c-6.144-1.973-12.176-3.889-18.151-5.749c-2.48-0.79-4.96-1.522-7.439-2.312
						c-6.257-1.971-12.457-3.889-18.544-5.692c-2.03-0.619-4.058-1.241-6.088-1.861c-2.028-0.619-4.001-1.241-5.975-1.803
						c-1.972-0.622-4.001-1.183-5.974-1.805c-7.835-2.367-15.557-4.621-23.054-6.82c-7.497-2.196-14.767-4.282-21.869-6.314
						c-3.326-0.9-6.539-1.858-9.751-2.76c-3.721-1.015-7.328-2.028-10.936-3.044c-4.79-1.351-9.469-2.65-14.035-3.889
						c-5.637-1.522-11.16-3.044-16.458-4.453c-1.578-0.451-3.157-0.845-4.679-1.241c-7.577-2.019-14.662-3.876-21.372-5.616
						c-13.809,20.627-26.006,42.339-36.277,65.046c1.409,0.337,3.663,0.845,6.707,1.521c1.409,0.339,2.988,0.734,4.735,1.128
						c14.373,3.382,39.962,9.638,74.007,18.712c1.522,0.395,3.1,0.79,4.679,1.241c5.298,1.409,10.822,2.931,16.458,4.453
						c4.566,1.239,9.244,2.536,14.035,3.889c3.608,1.014,7.215,2.028,10.935,3.044c3.212,0.901,6.426,1.859,9.751,2.76
						c7.102,2.03,14.373,4.116,21.87,6.314c7.497,2.199,15.219,4.453,23.053,6.82c1.973,0.621,4.002,1.183,5.975,1.804
						c1.973,0.563,3.946,1.183,5.975,1.804c2.03,0.619,4.058,1.24,6.088,1.86c6.087,1.803,12.287,3.72,18.544,5.692
						c2.48,0.79,4.959,1.522,7.439,2.312c5.975,1.861,12.007,3.776,18.15,5.749c14.035,4.453,28.408,9.187,43.12,14.035
						c7.947,2.649,15.951,5.354,24.068,8.116c9.469,3.268,19.051,6.594,28.747,10.033c4.734,1.635,9.526,3.325,14.373,5.072
						c5.129,1.804,10.315,3.663,15.5,5.524c4.51,1.691,9.075,3.326,13.584,5.017c34.27,12.626,69.499,26.266,105.066,40.922
						c5.073,2.085,10.203,4.171,15.275,6.312c15.275,6.427,30.607,13.021,45.938,19.784c5.129,2.255,10.258,4.566,15.388,6.876
						c2.48,1.071,4.959,2.199,7.496,3.383c5.299,2.423,10.654,4.847,15.952,7.328c3.27,1.521,6.538,3.043,9.807,4.564
						c4.228,1.974,8.455,4.002,12.626,5.975c22.039,10.541,43.965,21.419,65.666,32.749c5.805,3.044,11.611,6.088,17.36,9.187
						c5.411,2.818,10.766,5.749,16.065,8.68c6.144,3.326,12.231,6.707,18.262,10.146c0.902,0.508,1.86,1.014,2.762,1.522v0.056
						c50.052,28.296,98.019,58.845,142.098,91.594l1.184,0.506c25.816-56.366,40.133-118.592,40.133-184.09
						C2833.41,1150.997,2819.059,1088.928,2793.39,1032.679z"/>
				</g>
				<g>
					<path style="fill:#7EC42E;" d="M2649.939,1308.294c-2.311,2.931-104.333,128.176-449.686,42.726
						c-349.467-86.409-447.431-185.049-424.884-241.415c20.574-51.293,139.167-75.699,139.167-75.699
						c1.409,0.337,3.663,0.845,6.707,1.521c1.409,0.339,2.988,0.734,4.735,1.128c14.373,3.382,39.962,9.638,74.007,18.712
						c1.522,0.395,3.1,0.79,4.679,1.241c5.298,1.409,10.822,2.931,16.458,4.453c4.566,1.239,9.244,2.536,14.035,3.889
						c3.608,1.014,7.215,2.028,10.935,3.044c3.212,0.901,6.426,1.859,9.751,2.76c7.102,2.03,14.373,4.116,21.87,6.314
						c7.497,2.199,15.219,4.453,23.053,6.82c1.973,0.621,4.002,1.183,5.975,1.804c1.973,0.563,3.946,1.183,5.975,1.804
						c2.03,0.619,4.058,1.24,6.088,1.86c6.087,1.859,12.287,3.776,18.544,5.692c2.48,0.79,4.959,1.522,7.439,2.312
						c5.975,1.916,12.007,3.776,18.15,5.749c14.035,4.453,28.408,9.187,43.12,14.035c7.891,2.649,15.951,5.411,24.068,8.116
						c9.469,3.268,19.051,6.594,28.747,10.033c4.734,1.635,9.526,3.325,14.373,5.072c5.129,1.804,10.315,3.663,15.5,5.524
						c4.51,1.691,9.075,3.326,13.584,5.017c34.27,12.626,69.499,26.266,105.066,40.922c5.073,2.085,10.203,4.171,15.275,6.312
						c15.275,6.427,30.607,13.021,45.938,19.784c5.129,2.255,10.258,4.566,15.388,6.876c2.48,1.071,4.959,2.199,7.496,3.383
						c5.299,2.423,10.654,4.847,15.952,7.328c3.27,1.521,6.538,3.043,9.807,4.564c4.228,1.974,8.455,4.002,12.626,5.975
						c22.039,10.541,43.965,21.419,65.666,32.749c5.805,3.044,11.611,6.088,17.36,9.187c5.411,2.818,10.766,5.749,16.065,8.68
						c6.144,3.326,12.231,6.707,18.262,10.146C2648.135,1307.224,2649.037,1307.73,2649.939,1308.294z"/>
				</g>
				<g style="opacity:0.6;">
					<path style="fill:#FFFFFF;" d="M1907.398,1080.481c4.526-1.086,9.211-1.132,13.755-0.124c0.03,0.007,0.061,0.013,0.091,0.02
						c1.409,0.339,2.988,0.734,4.735,1.128c14.373,3.382,39.962,9.638,74.007,18.712c1.522,0.395,3.1,0.79,4.679,1.241
						c5.298,1.409,10.822,2.931,16.458,4.453c4.566,1.239,9.244,2.536,14.035,3.889c3.608,1.014,7.215,2.028,10.935,3.044
						c3.212,0.901,6.426,1.859,9.751,2.76c7.102,2.03,14.373,4.116,21.87,6.314c7.497,2.199,15.219,4.453,23.053,6.82
						c1.973,0.621,4.002,1.183,5.975,1.804c1.973,0.563,3.946,1.183,5.975,1.804c2.03,0.619,4.058,1.24,6.088,1.861
						c6.087,1.859,12.287,3.776,18.544,5.692c2.48,0.79,4.959,1.522,7.439,2.312c5.975,1.916,12.007,3.776,18.15,5.749
						c14.035,4.453,28.408,9.187,43.12,14.035c7.891,2.649,15.951,5.411,24.068,8.116c9.469,3.268,19.051,6.594,28.747,10.033
						c4.734,1.635,9.526,3.325,14.373,5.072c5.129,1.804,10.315,3.663,15.5,5.524c4.51,1.691,9.075,3.326,13.584,5.017
						c34.27,12.626,69.499,26.266,105.066,40.922c5.073,2.085,10.203,4.171,15.275,6.312c15.275,6.427,30.607,13.021,45.938,19.784
						c5.129,2.255,10.258,4.566,15.388,6.876c2.48,1.071,4.959,2.199,7.496,3.383c5.299,2.423,10.654,4.847,15.952,7.328
						c3.27,1.521,6.538,3.043,9.807,4.564c4.228,1.973,8.455,4.002,12.626,5.975c22.039,10.541,43.965,21.419,65.666,32.749
						c5.805,3.044,11.611,6.088,17.36,9.187c1.363,0.709,2.689,1.463,4.043,2.185c21.362-13.175,31.206-24.553,32.797-26.492
						c-0.034-0.18-0.046-0.245-0.08-0.425c-6.826-3.919-13.725-7.764-20.695-11.538c-5.299-2.931-10.654-5.862-16.065-8.68
						c-5.749-3.099-11.555-6.143-17.36-9.187c-21.701-11.33-43.627-22.208-65.666-32.749c-4.171-1.973-8.398-4.002-12.626-5.975
						c-3.27-1.522-6.538-3.044-9.807-4.564c-5.298-2.481-10.653-4.905-15.952-7.328c-2.536-1.184-5.016-2.312-7.496-3.383
						c-5.13-2.31-10.259-4.621-15.388-6.876c-15.331-6.764-30.663-13.358-45.938-19.784c-5.072-2.141-10.202-4.227-15.275-6.312
						c-35.567-14.656-70.795-28.296-105.066-40.922c-4.509-1.691-9.075-3.326-13.584-5.017c-5.185-1.86-10.371-3.72-15.5-5.524
						c-4.847-1.748-9.638-3.438-14.373-5.072c-9.696-3.439-19.277-6.765-28.747-10.033c-8.117-2.706-16.177-5.467-24.068-8.116
						c-14.712-4.848-29.085-9.582-43.12-14.035c-6.144-1.973-12.175-3.834-18.15-5.749c-2.48-0.79-4.959-1.522-7.439-2.312
						c-6.257-1.916-12.457-3.833-18.544-5.692c-2.03-0.621-4.058-1.241-6.088-1.86c-2.029-0.621-4.002-1.241-5.975-1.804
						c-1.972-0.621-4.002-1.183-5.975-1.804c-7.835-2.367-15.556-4.621-23.053-6.82c-7.497-2.198-14.768-4.284-21.87-6.314
						c-3.325-0.901-6.539-1.859-9.751-2.76c-3.72-1.016-7.328-2.03-10.935-3.044c-4.791-1.353-9.469-2.65-14.035-3.889
						c-5.637-1.522-11.16-3.044-16.458-4.453c-1.578-0.451-3.157-0.846-4.679-1.241c-34.045-9.074-59.635-15.33-74.007-18.712
						c-1.748-0.395-3.326-0.79-4.735-1.128c-3.044-0.676-5.298-1.183-6.707-1.521c0,0-118.594,24.405-139.167,75.699
						c-4.637,11.594-4.162,24.979,2.537,39.675C1800.087,1108.934,1882.54,1086.448,1907.398,1080.481z"/>
				</g>
				<g style="opacity:0.22;">
					<path style="fill:#160872;" d="M2647.234,1306.716c-6.031-3.439-12.119-6.82-18.262-10.146
						c-5.299-2.931-10.654-5.862-16.065-8.68c-5.749-3.099-11.555-6.143-17.36-9.187c-6.713-3.505-13.482-6.892-20.235-10.314
						c-51.134,32.575-173.645,78.349-419.228,17.585c-206.966-51.175-325.709-106.636-383.46-155.069
						c6.409,57.848,118.801,143.755,427.63,220.115c345.353,85.45,447.375-39.794,449.686-42.726
						C2649.037,1307.73,2648.135,1307.224,2647.234,1306.716z"/>
				</g>
				<g>
					<path style="fill:#160872;" d="M2793.266,1422.951c-2.974,0-5.991-0.591-8.892-1.841l-1.182-0.508
						c-1.614-0.693-3.142-1.572-4.553-2.622c-317.07-235.771-846.672-357.031-869.063-362.08c-6.611-1.489-12.2-5.874-15.222-11.938
						c-3.022-6.069-3.154-13.169-0.361-19.346c79.648-176.074,260.33-289.839,460.308-289.839
						c276.614,0,501.655,216.011,501.655,481.528c0,67.275-14.192,132.373-42.183,193.481
						C2809.99,1418.048,2801.823,1422.951,2793.266,1422.951z M1947.216,1018.498c114.441,28.096,548.599,143.857,836.172,347.231
						c18.245-47.72,27.476-97.861,27.476-149.424c0-240.654-204.812-436.44-456.563-436.44
						C2181.555,779.865,2024.753,872.663,1947.216,1018.498z"/>
				</g>
				<g>
					<path style="fill:#160872;" d="M2649.956,1330.802c-3.767,0-7.581-0.942-11.086-2.93
						c-312.141-176.675-712.407-268.164-729.295-271.973c-6.609-1.489-12.2-5.874-15.22-11.938
						c-3.022-6.069-3.154-13.174-0.361-19.346c79.648-176.074,260.33-289.839,460.308-289.839l2.229,0.005
						c174.082,0.703,326.494,124.38,362.336,294.067l0,0c9.39,44.458,11.169,89.854,5.286,134.922
						c-7.219,55.313-25.684,107.847-54.883,156.147C2665.041,1326.911,2657.6,1330.802,2649.956,1330.802z M1947.245,1018.444
						c100.498,24.419,421.55,109.473,694.138,259.204c19.802-37.588,32.581-77.759,38.056-119.717
						c5.222-40.005,3.643-80.298-4.695-119.766l0,0c-31.479-149.043-165.415-257.671-318.464-258.296l-1.98-0.005
						C2181.577,779.865,2024.792,872.643,1947.245,1018.444z"/>
				</g>
				<g>
					<path style="fill:#160872;" d="M2418.193,1403.307c-60.544,0-134.25-8.345-223.352-30.386
						c-241.983-59.844-396.602-134.434-435.376-210.034c-13.775-26.855-10.322-48.35-5-61.655
						c24.326-60.82,142.173-86.66,155.53-89.409c12.183-2.48,24.114,5.352,26.626,17.544c2.507,12.197-5.347,24.116-17.544,26.626
						c-44.334,9.17-111.736,34.463-122.747,61.987c-2.681,6.704-1.584,14.888,3.257,24.326
						c11.909,23.218,76.384,105.308,406.079,186.846c331.404,81.963,425.583-33.545,426.497-34.722
						c7.629-9.829,21.792-11.626,31.633-3.989c9.839,7.632,11.626,21.797,3.992,31.636
						C2664.433,1326.398,2601.969,1403.307,2418.193,1403.307z"/>
				</g>
				<g>
					<g>
						
							<rect x="2164.184" y="1916.518" transform="matrix(0.9984 0.0558 -0.0558 0.9984 125.9372 -141.5575)" style="fill-rule:evenodd;clip-rule:evenodd;fill:#F37B37;" width="864.919" height="533.595"/>
					</g>
					<g style="opacity:0.6;">
						<polygon style="fill-rule:evenodd;clip-rule:evenodd;fill:#FFFFFF;" points="2179.753,1892.791 2176.666,1947.995 
							3035.807,1996.034 3009.105,2473.593 3013.534,2473.84 3043.323,1941.077 						"/>
					</g>
					<g>
						
							<rect x="2792.257" y="2063.025" transform="matrix(0.9984 0.0558 -0.0558 0.9984 123.7854 -157.0503)" style="fill-rule:evenodd;clip-rule:evenodd;fill:#F41B1D;" width="161.279" height="148.108"/>
					</g>
					<g style="opacity:0.22;">
						<path style="fill-rule:evenodd;clip-rule:evenodd;fill:#160872;" d="M2993.29,1938.28
							c-37.468,272.63-278.761,475.167-558.337,459.534l-282.555-15.798l-2.434,43.538l863.57,48.286l29.789-532.763
							L2993.29,1938.28z"/>
					</g>
					<g>
						<polygon style="fill-rule:evenodd;clip-rule:evenodd;fill:#EDBB60;" points="2298.891,1899.454 2284.015,2165.512 
							2337.645,2107.278 2367.729,2170.194 2367.729,2170.194 2406.693,2107.278 2436.566,2174.042 2451.442,1907.983 						"/>
						<path style="fill:#160872;" d="M2436.562,2188.136c-5.474,0-10.559-3.198-12.859-8.335l-19.021-42.515l-24.973,40.327
							c-2.712,4.38-7.559,6.997-12.744,6.65c-5.144-0.283-9.727-3.345-11.948-7.993l-21.104-44.136l-39.531,42.925
							c-4.033,4.375-10.369,5.757-15.854,3.433c-5.479-2.315-8.914-7.827-8.582-13.765l14.875-266.06
							c0.21-3.73,1.892-7.226,4.677-9.717c2.786-2.495,6.462-3.809,10.178-3.564l152.551,8.53
							c7.771,0.434,13.718,7.085,13.284,14.854l-14.875,266.06c-0.364,6.489-5.12,11.889-11.514,13.071
							C2438.266,2188.058,2437.409,2188.136,2436.562,2188.136z M2337.646,2093.185c0.696,0,1.394,0.054,2.092,0.156
							c4.624,0.694,8.604,3.638,10.62,7.856l18.962,39.658l25.393-41.001c2.744-4.434,7.651-7.09,12.922-6.636
							c5.205,0.347,9.79,3.54,11.922,8.301l6.179,13.813l10.849-194.067l-124.411-6.953l-11.895,212.739l27-29.321
							C2329.968,2094.811,2333.74,2093.185,2337.646,2093.185z"/>
					</g>
					<g>
						<path style="fill:#160872;" d="M3013.535,2496.383c-0.417,0-0.837-0.01-1.26-0.034l-863.572-48.286
							c-5.969-0.332-11.563-3.022-15.547-7.48c-3.987-4.458-6.038-10.317-5.706-16.289l29.79-532.764
							c0.696-12.427,11.248-21.963,23.772-21.25l863.569,48.286c12.432,0.693,21.946,11.338,21.253,23.769l-29.788,532.764
							c-0.334,5.972-3.028,11.563-7.486,15.547C3024.418,2494.352,3019.064,2496.383,3013.535,2496.383z M2173.732,2404.298
							l818.55,45.771l27.271-487.744l-818.547-45.767L2173.732,2404.298z"/>
					</g>
					<g>
						<path style="fill:#160872;" d="M3013.535,2496.383c-0.417,0-0.837-0.01-1.26-0.034l-494.788-27.666
							c-5.969-0.332-11.563-3.022-15.547-7.48c-3.987-4.458-6.038-10.317-5.705-16.289l29.79-532.764
							c0.693-12.432,11.333-22.031,23.772-21.25l494.785,27.666c12.432,0.693,21.946,11.338,21.253,23.769l-29.788,532.764
							c-0.334,5.967-3.028,11.563-7.486,15.547C3024.418,2494.352,3019.064,2496.383,3013.535,2496.383z M2542.517,2424.923
							l449.765,25.146l27.271-487.744l-449.763-25.146L2542.517,2424.923z"/>
					</g>
				</g>
				<g>
					<path style="fill-rule:evenodd;clip-rule:evenodd;fill:#F97ADB;" d="M2768.59,2361.881
						c-80.773-20.009-40.19,95.991-40.19,95.991l-444.387-24.8c0,0-58.113,4.847-117.409,59.184l-290.262,281.074
						c-8.354,35.761-12.873,73.742-12.873,113.203c0,220.221,131.614,337.855,294.003,337.855
						c162.333,0,317.508-118.874,293.948-337.855c-24.436-227.749,25.306-340.458,282.135-340.505
						c40.611-0.007,78.102-24.606,92.136-62.714C2848.445,2421.53,2798.308,2369.194,2768.59,2361.881z"/>
				</g>
				<g style="opacity:0.22;">
					<g>
						<path style="fill-rule:evenodd;clip-rule:evenodd;fill:#160872;" d="M2450.049,2872.62
							c-23.641,158.098-155.556,242.793-292.577,242.793c-148.384,0-271.007-98.274-291.065-283.233
							c-1.91,17.748-2.938,35.879-2.938,54.352c0,220.221,131.614,337.855,294.003,337.855
							c162.333,0,317.508-118.874,293.948-337.855C2450.914,2881.821,2450.491,2877.233,2450.049,2872.62z"/>
					</g>
				</g>
				<g>
					<path style="fill:#160872;" d="M2157.473,3246.93c-88.35,0-168.032-33.203-224.373-93.496
						c-60.303-64.531-92.178-156.826-92.178-266.899c0-40.274,4.531-80.088,13.464-118.33c2.834-12.124,14.968-19.648,27.085-16.826
						c12.124,2.832,19.658,14.956,16.826,27.08c-8.149,34.888-12.283,71.25-12.283,108.076
						c0,191.543,106.553,315.307,271.458,315.307c81.997,0,157.886-32.134,208.205-88.159
						c51.123-56.914,73.02-134.629,63.325-224.736c-15.347-143.028,0.027-228.452,51.404-285.645
						c48.897-54.434,129.333-79.8,253.142-79.819c31.897-0.005,60.422-19.277,70.984-47.964c8.786-23.857,2.544-44.096-4.243-56.87
						c-10.852-20.43-28.223-32.69-37.09-34.873c-9.148-2.27-16.418-2.217-18.555,0.122c-7.485,8.198-3.508,41.9,5.046,66.558
						c2.463,7.1,1.23,14.98-3.296,20.981c-4.529,6.001-11.741,9.409-19.253,8.945l-442.446-24.692
						c-8.003,1.128-55.073,9.399-102.861,53.188c-9.172,8.413-23.438,7.793-31.853-1.387c-8.413-9.18-7.793-23.442,1.389-31.855
						c64.238-58.872,128.083-64.809,130.769-65.034c1.04-0.083,2.085-0.093,3.13-0.039l413.474,23.072
						c-4.77-25.498-6.23-59.458,12.554-80.088c9.856-10.825,28.733-21.963,62.712-13.55c24.453,6.021,51.033,29.131,66.101,57.5
						c11.103,20.898,21.284,54.106,6.736,93.608c-17.061,46.328-62.588,77.461-113.291,77.466
						c-110.093,0.024-179.873,20.635-219.604,64.863c-41.399,46.089-53.772,123.408-40.115,250.693
						c11.101,103.184-14.697,192.983-74.612,259.688C2340.365,3209.347,2252.25,3246.93,2157.473,3246.93z"/>
				</g>
				<g>
					<path style="fill:#160872;" d="M2041.076,2952.01c-1.509-10.173-3.051-20.372-4.406-30.603l-2.073-15.36
						c-0.645-5.127-0.96-10.275-1.456-15.421c-0.94-10.294-1.78-20.614-2.567-30.952c-0.504-10.343-0.847-20.718-1.16-31.107
						c-0.722-41.53,0.99-83.483,7.682-125.245c1.806-10.411,3.909-20.807,5.872-31.244c2.229-10.388,5.012-20.712,7.708-31.042
						c3.027-10.26,6.545-20.427,9.845-30.662l6.112-15.01c2.124-4.974,3.938-10.063,6.454-14.901
						c4.744-9.786,9.387-19.614,15.19-28.927c2.845-4.675,5.375-9.519,8.498-14.047l9.444-13.514
						c13.12-17.666,28.021-34.243,45.165-48.353c9.626-7.924,23.853-6.543,31.777,3.082c7.326,8.901,6.699,21.736-1.047,29.883
						l-0.291,0.303c-12.947,13.649-24.754,28.276-35.679,43.671c-10.763,15.536-20.298,32.042-29,49.148
						c-17.283,34.272-30.319,71.427-40.224,109.774c-9.828,38.418-16.077,78.141-20.673,118.269
						c-5.083,40.165-6.426,80.851-8.743,121.847l-0.007,0.122c-0.101,1.781-1.627,3.143-3.408,3.043
						C2042.532,2954.675,2041.295,2953.496,2041.076,2952.01z"/>
				</g>
				<g>
					<g>
						
							<ellipse transform="matrix(0.1109 -0.9938 0.9938 0.1109 -432.3947 3155.6013)" style="fill:#160872;" cx="1547.497" cy="1819.47" rx="138.102" ry="95.17"/>
					</g>
					<g>
						
							<ellipse transform="matrix(0.0701 -0.9975 0.9975 0.0701 -330.7054 3250.4465)" style="fill:#FFFFFF;" cx="1578.136" cy="1802.609" rx="40.216" ry="28.153"/>
					</g>
				</g>
				<g>
					<path style="fill:#000072;" d="M2073.844,1832.958c-17.341,3.242-35.04,7.85-51.291,13.926
						c-16.392,5.994-31.865,13.431-46.062,22.458c-14.202,8.973-27.509,19.077-39.122,31.073
						c-6.169,5.605-11.325,12.261-16.812,18.601c-2.886,3.048-4.987,6.788-7.524,10.164l-7.365,10.366l-27.681-32.131
						c1.642-0.649,2.639-0.962,3.74-1.335c1.126-0.397,2.186-0.699,3.215-0.98c2.091-0.597,4.18-1.178,6.213-1.617
						c4.102-1.031,8.173-1.71,12.245-2.44c8.144-1.267,16.327-1.837,24.479-1.923c16.299-0.063,32.599,2.106,48.015,6.946
						c15.317,4.939,30.128,11.423,42.863,20.72c6.718,4.063,12.427,9.487,18.268,14.49c3.003,2.404,5.446,5.446,8.07,8.226
						c2.567,2.848,5.14,5.642,7.583,8.528c2.741,3.237,2.338,8.083-0.899,10.825c-2.45,2.074-5.823,2.347-8.506,0.953l-0.777-0.406
						c-6.324-3.293-12.148-7.035-18.262-10.127l-9.258-4.336c-2.944-1.637-6.144-2.736-9.271-3.911
						c-12.35-5.071-25.171-7.983-37.805-9.89c-12.659-1.957-25.457-1.903-37.959-0.626c-6.265,0.597-12.432,1.79-18.492,3.076
						c-2.988,0.764-6.008,1.453-8.852,2.393c-1.475,0.414-2.831,0.907-4.183,1.392c-0.699,0.238-1.359,0.482-1.926,0.71
						l-1.341,0.529l-1.028,0.406c-11.348,4.475-24.175-1.095-28.651-12.443c-2.699-6.843-1.674-14.332,1.998-20.095l8.362-12.935
						c2.874-4.265,5.392-8.76,8.883-12.625c6.63-7.948,12.877-16.245,20.753-23.137c14.644-14.789,32.32-26.533,50.872-35.597
						c18.586-9.13,38.55-15.006,58.665-17.48c5.031-0.602,10.085-0.962,15.096-1.302c5.052-0.123,10.07-0.221,15.086-0.007
						c10.124,0.526,19.803,1.627,30.061,4.363c4.119,1.099,6.567,5.328,5.469,9.447c-0.791,2.965-3.205,5.065-6.031,5.599
						L2073.844,1832.958z"/>
				</g>
				<g>
					<g>
						<path style="fill:#160872;" d="M1811.883,2133.217l12.49-65.577c-61.366,41.619-123.243,56.763-186.127,19.693l22.978,59.651
							c10.075,26.152,33.174,45.468,60.898,49.573c0.626,0.093,1.256,0.182,1.889,0.267
							C1765.488,2202.418,1804.052,2174.33,1811.883,2133.217z"/>
					</g>
					<g>
						
							<ellipse transform="matrix(0.2884 -0.9575 0.9575 0.2884 -842.7142 3194.9954)" style="fill:#F04643;" cx="1728.199" cy="2164.466" rx="31.006" ry="50.638"/>
					</g>
					<g>
						<path style="fill:#160872;" d="M1734.579,2216.935c-4.348,0-8.74-0.288-13.162-0.884l-2.134-0.308
							c-34.255-5.073-63.438-28.75-76.162-61.787l-22.978-59.653c-3.853-9.995,1.13-21.226,11.13-25.078
							c10-3.862,21.228,1.138,25.076,11.133l22.979,59.653c7.71,20.01,25.195,34.326,45.635,37.354l1.719,0.244
							c31.106,4.209,60.215-16.89,66.142-48.022l12.49-65.576c2.002-10.527,12.161-17.441,22.688-15.429
							c10.525,2.007,17.432,12.163,15.427,22.685l-12.49,65.576C1821.994,2183.825,1781.003,2216.935,1734.579,2216.935z"/>
					</g>
					<g>
						<path style="fill:#160872;" d="M1723.495,2126.872c-31.287,0-68.186-7.656-110.503-28.73
							c-10.959-5.459-15.42-18.77-9.961-29.731c5.456-10.962,18.765-15.415,29.731-9.966
							c122.151,60.84,181.992-12.432,182.583-13.174c7.59-9.609,21.533-11.255,31.143-3.657c9.609,7.588,11.248,21.528,3.657,31.138
							C1849.555,2073.498,1806.096,2126.872,1723.495,2126.872z"/>
					</g>
				</g>
			</g>
			<g style="opacity:0.22;">
				<path style="fill:#160872;" d="M1072.941,2758.301c7.498,0,14.997,0.296,22.495,0.666
					c-405.782-86.624-409.441-322.784-382.964-499.478c-39.539,79.383-60.414,170.329-60.414,264.894
					c0,75.132,14.248,146.976,40.068,213.006C817.943,2704.568,947.85,2753.088,1072.941,2758.301z"/>
			</g>
		</g>
	</g>
</g>
</svg>
